<svg xmlns="http://www.w3.org/2000/svg" width="640" height="640" viewBox="0 0 640 640" version="1.1">
	<path d="M 92.500 1.602 C 73.876 4.915, 55.928 13.044, 40.888 24.979 C 19.900 41.634, 5.045 68.291, 1.035 96.500 C 0.399 100.969, 0.035 181.961, 0.026 320.500 C 0.011 553.919, -0.126 547.326, 5.059 563 C 15.847 595.608, 41.645 622.190, 73.583 633.605 C 92.728 640.448, 78.625 640.103, 324.500 639.737 C 526.289 639.437, 547.094 639.257, 553.025 637.766 C 592.754 627.775, 622.902 600.175, 635.004 562.716 C 640.693 545.106, 640.373 558.702, 640.704 320.062 C 640.872 199.371, 640.649 100.371, 640.210 100.062 C 639.771 99.753, 638.828 95.946, 638.115 91.601 C 630.450 44.879, 591.999 7.670, 544.566 1.072 C 539.255 0.334, 468.963 0.028, 318.678 0.090 C 134.696 0.165, 99.246 0.402, 92.500 1.602 M 0.491 320.500 C 0.491 441.500, 0.608 490.852, 0.750 430.170 C 0.892 369.489, 0.892 270.489, 0.750 210.170 C 0.608 149.852, 0.491 199.500, 0.491 320.500 M 298.136 121.080 C 267.789 123.010, 238.598 129.796, 218.851 139.510 C 207.392 145.147, 201.728 149.102, 194.500 156.515 C 188.886 162.272, 188.133 162.711, 182.802 163.337 C 174.216 164.344, 163.426 168.605, 154.500 174.514 C 145.348 180.573, 125.703 200.136, 116.309 212.549 C 98.569 235.986, 91.050 252.936, 91.015 269.562 C 91.004 274.571, 90.414 277.837, 88.986 280.793 C 83.922 291.274, 81.187 312.047, 82.967 326.500 C 87.452 362.904, 105.321 389.803, 134.097 403.469 C 147.049 409.620, 159.096 412.154, 178.162 412.740 L 194.825 413.251 195.494 416.876 C 197.837 429.573, 211.009 445.338, 225.058 452.260 C 249.998 464.547, 284.583 463.664, 313.751 449.995 L 322.013 446.124 323.631 449.254 C 326.713 455.213, 335.550 463.348, 347 470.768 C 353.325 474.866, 360.008 479.632, 361.851 481.360 C 366.150 485.390, 371.725 493.698, 375.840 502.208 C 379.574 509.929, 385.031 515.141, 391.795 517.446 C 397.366 519.344, 418.331 519.580, 424.236 517.811 C 429.051 516.369, 437.426 509.056, 439.927 504.113 C 442.019 499.974, 444 491.451, 444 486.582 L 444 483.262 453.139 482.090 C 486.901 477.760, 516.620 448.082, 521.540 413.783 C 522.056 410.191, 522.723 408.905, 524.337 408.393 C 525.503 408.023, 530.067 404.055, 534.479 399.574 C 547.607 386.242, 554.822 370.213, 557.152 349.200 C 559.815 325.186, 551.623 296.342, 536.979 278.169 L 532 271.990 531.983 264.245 C 531.938 244.407, 523.028 225.080, 502.527 200.357 C 490.489 185.839, 478.651 177.907, 464.749 175.043 C 459.682 173.999, 458.656 173.361, 456.122 169.679 C 442.221 149.483, 401.848 130.881, 355.991 123.545 C 347.655 122.211, 316.095 119.780, 312 120.156 C 311.175 120.231, 304.936 120.647, 298.136 121.080 M 286.500 142.165 C 259.941 145.163, 226.861 155.349, 216.095 163.845 L 213.690 165.743 217.595 166.983 C 229.341 170.713, 241.966 180.768, 247.217 190.575 C 254.630 204.421, 254.914 223.534, 247.942 239.500 C 243.129 250.521, 237.818 254.026, 231.151 250.578 C 225.023 247.409, 224.434 241.927, 229.184 232.277 C 231.775 227.016, 232.450 224.265, 232.803 217.530 C 233.075 212.350, 232.760 207.799, 231.963 205.375 C 227.554 191.978, 214.666 184.187, 195.347 183.243 C 177.157 182.354, 166.352 187.626, 148.435 206.135 C 127.211 228.060, 112.505 251.344, 111.268 264.979 L 110.758 270.611 115.129 271.918 C 130.807 276.607, 141.687 287.117, 146.603 302.323 C 148.852 309.281, 149.322 312.840, 149.753 326.201 C 150.194 339.839, 150.512 342.172, 152.169 343.951 C 154.644 346.607, 159.164 346.581, 161.595 343.896 C 163.396 341.907, 163.527 339.216, 164 294.646 C 164.347 261.960, 164.857 246.707, 165.663 244.914 C 167.300 241.273, 172.847 235.962, 176.688 234.357 C 183.573 231.480, 193.782 233.696, 198.629 239.118 C 199.800 240.428, 206.409 252.315, 213.317 265.534 C 220.225 278.752, 227.880 293.317, 230.328 297.899 L 234.780 306.231 237.267 301.866 C 238.634 299.465, 246.155 285.217, 253.979 270.205 C 261.803 255.193, 269.377 241.517, 270.811 239.813 C 276.216 233.389, 286.561 231.205, 293.885 234.941 C 298.855 237.477, 303.627 242.993, 304.940 247.723 C 305.616 250.157, 305.991 272.067, 305.994 309.349 C 306.001 373.192, 305.853 371.623, 312.298 376.212 C 316.549 379.239, 323.557 379.164, 327.939 376.044 C 334.101 371.655, 333.999 372.778, 334.006 309.282 C 334.009 272.047, 334.384 250.157, 335.060 247.723 C 337.286 239.709, 346.197 233.066, 354.782 233.022 C 360.333 232.993, 364.741 234.940, 368.614 239.131 C 370.327 240.984, 379.030 256.450, 387.953 273.500 C 396.876 290.550, 404.497 304.837, 404.887 305.249 C 405.278 305.660, 412.941 291.935, 421.917 274.749 C 430.894 257.562, 439.297 242.084, 440.592 240.352 C 448.831 229.334, 467.011 231.288, 473.673 243.907 L 476 248.315 476.004 296.407 C 476.007 342.099, 476.104 344.657, 477.931 347.655 C 481.474 353.465, 489.897 352.943, 492.430 346.756 C 493.290 344.655, 493.794 338.804, 493.851 330.258 C 494.012 306.012, 498.714 288.518, 508.299 276.506 C 511.085 273.015, 511.531 271.615, 511.846 265.369 C 512.443 253.550, 508.292 242.623, 496.838 225.863 C 487.538 212.253, 476.347 200.893, 468.815 197.416 C 462.880 194.675, 461.748 194.503, 450 194.546 C 435.250 194.601, 429.176 196.452, 421.459 203.245 C 412.681 210.972, 409.696 223.087, 413.489 235.591 C 415.671 242.784, 415.391 245.530, 412.102 249.211 C 409.739 251.857, 408.459 252.455, 405.159 252.455 C 396.361 252.455, 392.516 243.931, 392.547 224.500 C 392.564 213.555, 392.820 211.892, 395.455 205.587 C 399.588 195.696, 408.671 186.290, 419.159 181.040 C 423.516 178.860, 428.638 176.783, 430.540 176.426 C 432.443 176.069, 434 175.443, 434 175.034 C 434 173.684, 422.654 166.326, 413.500 161.741 C 396.485 153.217, 369.381 145.415, 346.699 142.511 C 333.668 140.843, 299.930 140.649, 286.500 142.165 M 268.400 174.400 C 264.646 178.154, 264.103 181.364, 266.453 185.909 C 268.216 189.318, 271.472 190.651, 279.914 191.420 C 294.744 192.770, 308.644 204.363, 311.470 217.738 C 312.408 222.181, 316.276 225.005, 321.385 224.978 C 326.955 224.948, 329.560 222.640, 331.975 215.595 C 336.760 201.633, 348.718 192.578, 364.068 191.291 C 370.071 190.788, 371.853 190.210, 374.389 187.944 C 376.889 185.710, 377.455 184.430, 377.455 181 C 377.455 177.520, 376.895 176.296, 374.211 173.898 C 371.592 171.557, 370.059 171.003, 366.234 171.017 C 352.484 171.068, 336.392 177.608, 327.063 186.937 L 321.342 192.658 314.790 186.450 C 304.605 176.801, 290.434 171.067, 276.650 171.017 C 272.456 171.002, 271.340 171.460, 268.400 174.400 M 183.797 299.595 C 183.511 343.738, 183.420 345.673, 181.408 350 C 176.446 360.675, 168.342 365.980, 157 365.980 C 148.751 365.980, 141.778 362.895, 136.749 357.019 C 131.265 350.613, 130 345.712, 130 330.871 C 130 311.965, 127.817 303.970, 120.838 297.320 C 118.236 294.841, 108.783 290, 106.543 290 C 105.110 290, 102.739 305.984, 102.760 315.500 C 102.801 334.116, 107.015 348.733, 116.420 362.880 C 122.740 372.386, 130.646 379.185, 141.500 384.450 C 154.243 390.630, 160.875 392.089, 179.070 392.717 L 194.640 393.253 196.847 387.200 C 201.542 374.324, 210.866 363.850, 224.077 356.611 C 236.890 349.589, 256.156 346.702, 260.873 351.096 C 264.203 354.199, 265.252 357.706, 263.992 361.523 C 262.277 366.720, 259.914 368.120, 251.215 369.093 C 241.480 370.182, 236.520 371.884, 229.498 376.545 C 218.920 383.566, 213.432 394.248, 214.206 406.307 C 214.771 415.115, 218.093 421.987, 224.750 428.124 C 235.958 438.454, 257.404 443.219, 278 439.955 C 288.848 438.235, 288.851 438.231, 281.907 434.159 C 268.062 426.040, 251.500 405.444, 251.500 396.346 C 251.500 388.708, 258.471 384.231, 265.310 387.477 C 267.819 388.668, 269.736 390.961, 272.607 396.207 C 284.293 417.564, 306.375 427.593, 330.471 422.489 C 356.111 417.057, 374.121 396.049, 376.511 368.784 C 377.323 359.509, 378.586 356.265, 382.091 354.453 C 389.623 350.558, 397 355.664, 397 364.773 C 397 377.856, 390.924 397.483, 383.400 408.703 C 380.980 412.312, 379 415.627, 379 416.070 C 379 417.659, 391.648 423.046, 399 424.588 C 410.250 426.948, 421.290 424.998, 423.062 420.337 C 423.801 418.394, 423.219 416.402, 420.101 410.202 C 414.643 399.345, 413 393.059, 413 383.029 C 413 372.136, 415.002 364.399, 420.160 355.357 C 425.369 346.224, 429.498 344.138, 435.855 347.425 C 441.279 350.230, 442.507 357.318, 438.573 363.108 C 434.407 369.238, 432.694 376.161, 433.197 384.836 C 433.587 391.576, 434.264 393.855, 438.323 402.089 C 442.461 410.483, 443 412.336, 443 418.174 C 443 430.345, 435.969 439.458, 423.423 443.549 C 415.720 446.060, 400.232 446.075, 391 443.579 C 383.671 441.598, 372.197 436.422, 367.104 432.800 L 363.707 430.384 354.322 435.192 C 349.160 437.836, 344.276 440, 343.468 440 C 342.661 440, 342 440.388, 342 440.863 C 342 442.454, 351.667 450.790, 356.108 453.029 C 371.663 460.872, 383.710 473.556, 392.870 491.732 C 394.972 495.904, 396.753 498.150, 398.255 498.525 C 399.490 498.834, 404.728 498.954, 409.896 498.793 C 418.831 498.514, 419.392 498.365, 421.344 495.745 C 422.960 493.578, 423.524 490.884, 423.993 483.109 C 424.526 474.280, 424.892 472.831, 427.427 469.507 C 431.081 464.716, 434.485 463.411, 445.399 462.615 C 467.374 461.012, 486.128 448.432, 496.056 428.634 C 501.840 417.098, 502.004 417.384, 489.250 416.745 C 480.483 416.307, 476.858 415.607, 469.599 412.954 C 458.113 408.757, 454.545 405.687, 454.545 400 C 454.545 396.493, 455.101 395.299, 457.893 392.804 C 461.959 389.172, 465.248 389.324, 475 393.597 C 480.832 396.152, 482.630 396.448, 492.500 396.473 C 502.429 396.497, 504.069 396.234, 509.340 393.764 C 517.376 390, 525.952 381.036, 530.377 371.775 C 539.169 353.380, 539.989 334.451, 532.947 312.511 C 530.232 304.055, 523.826 292, 522.046 292 C 521.019 292, 517.407 300.383, 515.976 306.090 C 515.367 308.516, 514.524 319.500, 514.102 330.500 C 513.450 347.471, 513.021 351.205, 511.265 355.156 C 505.580 367.947, 490.440 374.745, 476.788 370.637 C 468.780 368.227, 463.497 363.755, 459.809 356.266 L 456.500 349.546 456.500 301.774 C 456.500 275.500, 456.270 254.002, 455.990 254.001 C 455.709 254, 450.562 263.337, 444.551 274.750 C 415.757 329.422, 417.147 327.130, 411.282 329.629 C 409.512 330.383, 406.682 331, 404.992 331 C 401.746 331, 395.089 328.050, 393.308 325.823 C 392.727 325.095, 385.397 311.450, 377.020 295.500 C 368.643 279.550, 360.149 263.575, 358.144 260 L 354.500 253.500 354 313.500 C 353.505 372.852, 353.476 373.551, 351.282 378.259 C 346.306 388.934, 334.728 397.297, 323.004 398.686 C 311.941 399.996, 299.003 393.658, 292.259 383.624 C 285.978 374.277, 286 374.536, 286 311.118 C 286 276.310, 285.639 253.975, 285.085 254.550 C 284.582 255.073, 276.034 271.025, 266.090 290 C 253.526 313.975, 247.032 325.337, 244.802 327.243 C 238.838 332.341, 230.166 332.104, 224.503 326.690 C 222.349 324.630, 215.055 311.810, 203.914 290.500 C 194.425 272.350, 186.083 256.643, 185.378 255.595 C 184.323 254.029, 184.042 261.850, 183.797 299.595" stroke="none" fill="black" fill-rule="evenodd"/>
</svg>