<svg xmlns="http://www.w3.org/2000/svg" width="1200" height="220" viewBox="0 0 1200 220">
  <rect width="1200" height="220" fill="#0A0A0A"/>

  <style>
    @keyframes float { 0% { transform: translateY(0); opacity: 0.3; } 50% { opacity: 0.7; } 100% { transform: translateY(-220px); opacity: 0; } }
    @keyframes drift { 0% { transform: translate(0,0); opacity: 0.2; } 50% { opacity: 0.5; } 100% { transform: translate(20px,-220px); opacity: 0; } }
    @keyframes driftL { 0% { transform: translate(0,0); opacity: 0.25; } 50% { opacity: 0.6; } 100% { transform: translate(-15px,-220px); opacity: 0; } }
    @keyframes flicker { 0% { opacity: 0.2; } 25% { opacity: 0.5; } 50% { opacity: 0.3; } 75% { opacity: 0.6; } 100% { opacity: 0.2; } }
    .e { animation: float linear infinite; }
    .ed { animation: drift linear infinite; }
    .el { animation: driftL linear infinite; }
    .s { animation: flicker ease-in-out infinite; }
  </style>

  <!-- Red embers -->
  <circle class="e" cx="80" cy="200" r="2.5" fill="#B20000" style="animation-duration:6s;animation-delay:0s"/>
  <circle class="ed" cx="180" cy="190" r="1.8" fill="#B20000" style="animation-duration:7s;animation-delay:1s"/>
  <circle class="e" cx="320" cy="210" r="3" fill="#B20000" style="animation-duration:5s;animation-delay:0.5s"/>
  <circle class="el" cx="450" cy="195" r="2" fill="#B20000" style="animation-duration:8s;animation-delay:2s"/>
  <circle class="ed" cx="600" cy="205" r="2.8" fill="#B20000" style="animation-duration:6.5s;animation-delay:0.8s"/>
  <circle class="e" cx="720" cy="200" r="1.5" fill="#B20000" style="animation-duration:7.5s;animation-delay:3s"/>
  <circle class="el" cx="850" cy="210" r="2.2" fill="#B20000" style="animation-duration:5.5s;animation-delay:1.5s"/>
  <circle class="e" cx="980" cy="195" r="3.2" fill="#B20000" style="animation-duration:6s;animation-delay:0.3s"/>
  <circle class="ed" cx="1100" cy="200" r="2" fill="#B20000" style="animation-duration:7s;animation-delay:2.5s"/>
  <circle class="el" cx="1150" cy="210" r="1.8" fill="#B20000" style="animation-duration:8s;animation-delay:4s"/>
  <circle class="ed" cx="150" cy="150" r="2" fill="#B20000" style="animation-duration:5s;animation-delay:3s"/>
  <circle class="e" cx="400" cy="130" r="1.5" fill="#B20000" style="animation-duration:6s;animation-delay:1.2s"/>
  <circle class="el" cx="550" cy="160" r="2.5" fill="#B20000" style="animation-duration:7s;animation-delay:0.7s"/>
  <circle class="e" cx="750" cy="140" r="1.8" fill="#B20000" style="animation-duration:5.5s;animation-delay:2.2s"/>
  <circle class="ed" cx="900" cy="155" r="2.2" fill="#B20000" style="animation-duration:6.5s;animation-delay:3.5s"/>
  <circle class="el" cx="1050" cy="145" r="3" fill="#B20000" style="animation-duration:5s;animation-delay:0.4s"/>

  <!-- Gold embers -->
  <circle class="el" cx="250" cy="205" r="1.5" fill="#C5A059" style="animation-duration:8s;animation-delay:1s"/>
  <circle class="e" cx="500" cy="200" r="2" fill="#C5A059" style="animation-duration:6s;animation-delay:3.5s"/>
  <circle class="ed" cx="670" cy="210" r="1.8" fill="#C5A059" style="animation-duration:7s;animation-delay:0.5s"/>
  <circle class="el" cx="1020" cy="195" r="2.5" fill="#C5A059" style="animation-duration:5.5s;animation-delay:2s"/>
  <circle class="e" cx="350" cy="170" r="1.2" fill="#C5A059" style="animation-duration:7.5s;animation-delay:4s"/>
  <circle class="ed" cx="820" cy="165" r="1.8" fill="#C5A059" style="animation-duration:6s;animation-delay:1.8s"/>

  <!-- Smoke -->
  <circle class="s" cx="120" cy="180" r="1.5" fill="#8E8E8E" style="animation-duration:4s;animation-delay:0s"/>
  <circle class="s" cx="380" cy="170" r="1" fill="#8E8E8E" style="animation-duration:3s;animation-delay:1s"/>
  <circle class="s" cx="530" cy="185" r="1.2" fill="#8E8E8E" style="animation-duration:5s;animation-delay:2s"/>
  <circle class="s" cx="700" cy="175" r="1.5" fill="#8E8E8E" style="animation-duration:3.5s;animation-delay:0.5s"/>
  <circle class="s" cx="950" cy="180" r="1" fill="#8E8E8E" style="animation-duration:4.5s;animation-delay:1.5s"/>
  <circle class="s" cx="1080" cy="190" r="1.3" fill="#8E8E8E" style="animation-duration:3s;animation-delay:3s"/>

  <!-- Tech Enthusiast (Corleone-Due) -->
  <path d="M488.31 58.18H469.77V69.52H470.25C470.43 66.52000000000001 472.59 64.72 475.40999999999997 64.72V95.26C475.40999999999997 97.36 474.15 99.04 472.59 99.52V100.0H485.49V99.52C483.87 99.16 482.67 97.3 482.67 95.32V64.72C485.49 64.72 487.65 66.52000000000001 487.83 69.52H488.31Z" fill="#F2F2F2"/>
  <path d="M506.67 90.46000000000001H506.37C505.89 93.58 504.39 94.42 502.28999999999996 94.42H499.23C497.96999999999997 94.42 497.43 93.58 497.43 92.62V90.94L504.93 85.18C506.25 84.22 506.67 82.96000000000001 506.67 81.64V76.96000000000001C506.67 74.62 505.11 72.04 501.87 72.04H495.51C492.87 72.04 490.71 73.96000000000001 490.71 77.32V95.14C490.71 97.42 492.51 100.0 495.45 100.0H501.51C504.75 100.0 506.67 98.08 506.67 94.36ZM500.07 80.74000000000001C500.07 81.52 499.71 82.24000000000001 498.93 82.84L497.43 83.98V79.0C497.43 77.74000000000001 497.90999999999997 77.26 498.81 77.26C499.65 77.26 500.07 77.98 500.07 79.0Z" fill="#F2F2F2"/>
  <path d="M524.43 90.46000000000001H524.07C523.53 92.86 522.27 94.42 519.99 94.42H518.37C516.51 94.42 515.79 93.64 515.79 91.9V80.38C515.79 78.28 516.69 77.56 518.43 77.56H520.59C522.8100000000001 77.56 523.65 79.53999999999999 524.07 81.58H524.43V76.6C524.43 73.66 522.93 72.04 519.87 72.04H514.41C510.57 72.04 509.07 74.02 509.07 77.98V94.06C509.07 98.68 511.29 100.0 514.59 100.0H519.09C523.23 100.0 524.43 98.14 524.43 95.44Z" fill="#F2F2F2"/>
  <path d="M545.01 100.0V99.52C544.05 99.34 543.63 98.86 543.63 97.9V76.3C543.63 73.42 542.49 71.86 539.55 71.86C537.39 71.86 535.71 72.82 534.33 74.32V58.18L526.23 62.620000000000005V62.92C527.1899999999999 62.980000000000004 527.61 63.58 527.61 64.9V100.0H535.71V99.52C534.81 99.4 534.33 98.86 534.33 97.84V79.36C534.33 77.98 534.75 77.26 535.71 77.26C536.67 77.26 536.91 77.98 536.91 79.3V100.0Z" fill="#F2F2F2"/>
  <path d="M561.63 95.32C561.63 97.42 560.37 99.04 558.8100000000001 99.52V100.0H577.59V89.8H577.11C576.57 92.74 575.25 93.46 572.79 93.46H568.89V81.76H570.69C572.19 81.76 573.15 82.72 573.39 84.88H573.87V72.7H573.39C573.27 74.56 572.3100000000001 75.82 570.75 75.82H568.89V64.72H572.79C575.25 64.72 576.57 65.44 577.11 68.38H577.59V58.18H558.8100000000001V58.660000000000004C560.37 59.14 561.63 60.76 561.63 62.86Z" fill="#F2F2F2"/>
  <path d="M598.23 100.0V99.52C597.27 99.34 596.8499999999999 98.86 596.8499999999999 97.9V76.3C596.8499999999999 73.42 595.65 71.86 592.7099999999999 71.86C590.49 71.86 588.87 72.82 587.49 74.32V71.14L579.39 75.52V75.82C580.3499999999999 75.88 580.77 76.48 580.77 77.8V100.0H588.87V99.52C587.9699999999999 99.4 587.49 98.86 587.49 97.84V79.36C587.49 77.98 587.91 77.26 588.87 77.26C589.8299999999999 77.26 590.13 77.98 590.13 79.3V100.0Z" fill="#F2F2F2"/>
  <path d="M610.9499999999999 72.04H607.53V64.72L599.43 69.28V69.52C600.3899999999999 69.52 600.81 70.18 600.81 71.5V100.0H608.91V99.52C608.0099999999999 99.4 607.53 98.86 607.53 97.96V77.56H610.9499999999999Z" fill="#F2F2F2"/>
  <path d="M630.6299999999999 100.0V99.52C629.6699999999998 99.34 629.2499999999999 98.86 629.2499999999999 97.9V76.3C629.2499999999999 73.42 628.1099999999999 71.86 625.1699999999998 71.86C623.0099999999999 71.86 621.3299999999999 72.82 619.9499999999999 74.32V58.18L611.8499999999999 62.620000000000005V62.92C612.8099999999998 62.980000000000004 613.2299999999999 63.58 613.2299999999999 64.9V100.0H621.3299999999999V99.52C620.4299999999998 99.4 619.9499999999999 98.86 619.9499999999999 97.84V79.36C619.9499999999999 77.98 620.3699999999999 77.26 621.3299999999999 77.26C622.2899999999998 77.26 622.5299999999999 77.98 622.5299999999999 79.3V100.0Z" fill="#F2F2F2"/>
  <path d="M651.2699999999999 100.0V99.52C650.31 99.4 649.8899999999999 98.92 649.8899999999999 97.48V71.14L641.7899999999998 75.52V75.82C642.7499999999999 75.82 643.17 76.6 643.17 77.56V92.74C643.17 94.12 642.5699999999999 94.78 641.4899999999999 94.78C640.4099999999999 94.78 639.93 94.18 639.93 92.74V71.14L631.8299999999999 75.52V75.82C632.9099999999999 75.82 633.2099999999999 76.72 633.2099999999999 77.74000000000001V94.84C633.2099999999999 98.38 634.7699999999999 100.18 637.7699999999999 100.24C639.6899999999999 100.24 641.7899999999998 99.46 643.17 97.9C643.17 99.28 643.7699999999999 100.0 644.7299999999999 100.0Z" fill="#F2F2F2"/>
  <path d="M669.0299999999999 90.16C669.0299999999999 87.82 668.1899999999999 85.9 665.4899999999999 84.16L661.4099999999999 81.58C660.1499999999999 80.8 659.7899999999998 80.08 659.7899999999998 79.06C659.7899999999998 78.03999999999999 660.3899999999999 77.62 661.6499999999999 77.62H663.4499999999999C665.8499999999999 77.62 667.8299999999999 79.0 668.31 81.58H668.7299999999999V77.02C668.7299999999999 74.2 666.9299999999998 72.04 663.6299999999999 72.04H658.4699999999999C654.6299999999999 72.04 653.0699999999999 74.26 653.0699999999999 77.38V81.1C653.0699999999999 84.58 655.5299999999999 85.9 656.7899999999998 86.68L660.0299999999999 88.72C661.2299999999999 89.44 662.31 90.1 662.31 92.32C662.31 93.22 661.7699999999999 94.42 660.2099999999999 94.42H658.3499999999999C655.5899999999999 94.42 653.7299999999999 92.92 653.4899999999999 90.46000000000001H653.0699999999999V94.72C653.0699999999999 97.72 654.81 100.0 658.1699999999998 100.0H663.9299999999998C667.2299999999999 100.0 669.0299999999999 97.72 669.0299999999999 94.96Z" fill="#F2F2F2"/>
  <path d="M679.4099999999999 67.18C679.4099999999999 65.08 677.9099999999999 63.28 675.6299999999999 63.28C673.2299999999999 63.28 671.7899999999998 65.02000000000001 671.7899999999998 67.18C671.7899999999998 69.46000000000001 673.2899999999998 71.08 675.6299999999999 71.08C677.8499999999999 71.08 679.4099999999999 69.4 679.4099999999999 67.18ZM680.31 100.0V99.52C679.4099999999999 99.4 678.93 98.86 678.93 97.96V71.14L670.8299999999999 75.52V75.82C671.7899999999998 75.82 672.2099999999999 76.48 672.2099999999999 77.8V100.0Z" fill="#F2F2F2"/>
  <path d="M689.1299999999999 90.28C689.1299999999999 89.14 689.4299999999998 88.24 690.0299999999999 87.76L691.6499999999999 86.44V93.34C691.6499999999999 94.3 691.1099999999999 94.78 690.3899999999999 94.78C689.5499999999998 94.78 689.1299999999999 94.3 689.1299999999999 93.34ZM682.4099999999999 96.04C682.4099999999999 98.5 683.7899999999998 100.0 686.1899999999998 100.0H688.1699999999998C689.9099999999999 100.0 690.9899999999999 99.58 691.6499999999999 98.08C692.0099999999999 99.58 692.7899999999998 100.0 694.4699999999999 100.0H699.7499999999999V99.52C698.7299999999999 99.34 698.3699999999999 98.92 698.3699999999999 97.72V77.08C698.3699999999999 74.14 696.6299999999999 72.04 693.6899999999998 72.04H687.7499999999999C685.4099999999999 72.04 683.3099999999998 73.3 683.3099999999998 76.0V80.02H683.6099999999999C684.5099999999999 77.86 685.9499999999999 77.56 687.7499999999999 77.56H690.6299999999999C691.2899999999998 77.56 691.6499999999999 77.92 691.6499999999999 78.46000000000001V79.06C691.6499999999999 79.53999999999999 691.3499999999999 79.96000000000001 690.7499999999999 80.44L683.9099999999999 85.48C682.8899999999999 86.32 682.4099999999999 87.46000000000001 682.4099999999999 89.14Z" fill="#F2F2F2"/>
  <path d="M717.8099999999998 90.16C717.8099999999998 87.82 716.9699999999999 85.9 714.2699999999999 84.16L710.1899999999998 81.58C708.9299999999998 80.8 708.5699999999998 80.08 708.5699999999998 79.06C708.5699999999998 78.03999999999999 709.1699999999998 77.62 710.4299999999998 77.62H712.2299999999999C714.6299999999999 77.62 716.6099999999999 79.0 717.0899999999999 81.58H717.5099999999999V77.02C717.5099999999999 74.2 715.7099999999998 72.04 712.4099999999999 72.04H707.2499999999999C703.4099999999999 72.04 701.8499999999999 74.26 701.8499999999999 77.38V81.1C701.8499999999999 84.58 704.3099999999998 85.9 705.5699999999998 86.68L708.8099999999998 88.72C710.0099999999999 89.44 711.0899999999999 90.1 711.0899999999999 92.32C711.0899999999999 93.22 710.5499999999998 94.42 708.9899999999999 94.42H707.1299999999999C704.3699999999999 94.42 702.5099999999999 92.92 702.2699999999999 90.46000000000001H701.8499999999999V94.72C701.8499999999999 97.72 703.5899999999999 100.0 706.9499999999998 100.0H712.7099999999998C716.0099999999999 100.0 717.8099999999998 97.72 717.8099999999998 94.96Z" fill="#F2F2F2"/>
  <path d="M731.1299999999999 72.04H727.7099999999999V64.72L719.6099999999999 69.28V69.52C720.5699999999998 69.52 720.9899999999999 70.18 720.9899999999999 71.5V100.0H729.0899999999999V99.52C728.1899999999998 99.4 727.7099999999999 98.86 727.7099999999999 97.96V77.56H731.1299999999999Z" fill="#F2F2F2"/>

  <!-- Software Engineer (Corleone-Due) -->
  <path d="M550.92 134.1C550.92 133.56 551.36 133.24 552.1 133.24C553.02 133.24 553.4399999999999 133.66 553.5799999999999 134.76H553.74V132.68C553.74 131.78 553.18 131.06 552.14 131.06H550.1999999999999C549.1 131.06 548.5 131.68 548.5 132.68V136.0C548.5 136.9 548.56 137.26 549.1 137.76L550.9 139.46C551.16 139.72 551.3199999999999 140.0 551.3199999999999 140.28V141.96C551.3199999999999 142.5 550.88 142.82 550.14 142.82C549.22 142.82 548.8 142.4 548.66 141.3H548.5V143.38C548.5 144.28 549.06 145.0 550.1 145.0H552.04C553.14 145.0 553.74 144.38 553.74 143.38V139.58C553.74 139.08 553.6 138.7 553.3 138.42L551.18 136.4C551.0 136.24 550.92 135.98 550.92 135.72Z" fill="#B20000"/>
  <path d="M557.82 142.78C557.82 143.1 557.64 143.26 557.4 143.26C557.12 143.26 556.98 143.1 556.98 142.78V137.96C556.98 137.66 557.1 137.42 557.4 137.42C557.6600000000001 137.42 557.82 137.62 557.82 137.96ZM558.4200000000001 145.0C559.4200000000001 145.0 560.0600000000001 144.26 560.0600000000001 143.26V137.42C560.0600000000001 136.34 559.38 135.68 558.4200000000001 135.68H556.38C555.4200000000001 135.68 554.74 136.34 554.74 137.42V143.26C554.74 144.26 555.38 145.0 556.38 145.0Z" fill="#B20000"/>
  <path d="M563.1600000000001 133.18C563.1600000000001 132.86 563.32 132.74 563.46 132.74C563.64 132.74 563.76 132.86 563.76 133.18V134.74L565.6 133.18V132.62C565.6 131.7 565.1 131.06 564.14 131.06H562.44C561.6 131.06 560.9200000000001 131.76 560.9200000000001 132.58V145.0H563.6V144.84C563.32 144.8 563.1600000000001 144.62 563.1600000000001 144.32V137.52H564.2800000000001V135.68H563.1600000000001Z" fill="#B20000"/>
  <path d="M569.64 135.68H568.5V133.24L565.8000000000001 134.76V134.84C566.12 134.84 566.26 135.06 566.26 135.5V145.0H568.96V144.84C568.66 144.8 568.5 144.62 568.5 144.32V137.52H569.64Z" fill="#B20000"/>
  <path d="M580.3 135.84V135.68H577.72V135.84C577.98 135.88 578.12 136.0 578.12 136.24C578.12 136.28 578.1 136.46 578.08 136.52L577.28 140.86L576.3 135.68H574.44L573.44 140.86L572.6800000000001 136.52C572.66 136.4 572.64 136.3 572.64 136.22C572.64 136.0 572.76 135.9 572.98 135.84V135.68H569.84V135.84C570.12 135.9 570.3 136.1 570.38 136.5L572.32 145.0H574.1800000000001L575.08 140.28L575.98 145.0H577.84L579.78 136.56C579.9 136.06 580.0600000000001 135.9 580.3 135.84Z" fill="#B20000"/>
  <path d="M582.9399999999999 141.76C582.9399999999999 141.38 583.04 141.08 583.24 140.92L583.78 140.48V142.78C583.78 143.1 583.6 143.26 583.36 143.26C583.0799999999999 143.26 582.9399999999999 143.1 582.9399999999999 142.78ZM580.6999999999999 143.68C580.6999999999999 144.5 581.16 145.0 581.9599999999999 145.0H582.62C583.1999999999999 145.0 583.56 144.86 583.78 144.36C583.9 144.86 584.16 145.0 584.72 145.0H586.48V144.84C586.14 144.78 586.02 144.64 586.02 144.24V137.36C586.02 136.38 585.4399999999999 135.68 584.4599999999999 135.68H582.48C581.6999999999999 135.68 581.0 136.1 581.0 137.0V138.34H581.1C581.4 137.62 581.88 137.52 582.48 137.52H583.4399999999999C583.66 137.52 583.78 137.64 583.78 137.82V138.02C583.78 138.18 583.68 138.32 583.48 138.48L581.1999999999999 140.16C580.86 140.44 580.6999999999999 140.82 580.6999999999999 141.38Z" fill="#B20000"/>
  <path d="M592.68 138.3V137.02C592.68 136.06 592.16 135.6 591.24 135.6C590.6999999999999 135.6 590.12 135.84 589.68 136.26V135.38L586.98 136.84V136.94C587.3 136.94 587.4399999999999 137.16 587.4399999999999 137.6V145.0H590.14V144.84C589.8399999999999 144.8 589.68 144.64 589.68 144.26V138.12C589.68 137.64 589.86 137.42 590.18 137.42C590.48 137.42 590.64 137.66 590.64 138.1V140.22Z" fill="#B20000"/>
  <path d="M598.7 141.82H598.6C598.44 142.86 597.94 143.14 597.24 143.14H596.22C595.8000000000001 143.14 595.62 142.86 595.62 142.54V141.98L598.12 140.06C598.5600000000001 139.74 598.7 139.32 598.7 138.88V137.32C598.7 136.54 598.1800000000001 135.68 597.1 135.68H594.98C594.1 135.68 593.38 136.32 593.38 137.44V143.38C593.38 144.14 593.98 145.0 594.96 145.0H596.98C598.0600000000001 145.0 598.7 144.36 598.7 143.12ZM596.5 138.58C596.5 138.84 596.38 139.08 596.12 139.28L595.62 139.66V138.0C595.62 137.58 595.78 137.42 596.08 137.42C596.36 137.42 596.5 137.66 596.5 138.0Z" fill="#B20000"/>
  <path d="M604.44 143.44C604.44 144.14 604.02 144.68 603.5 144.84V145.0H609.76V141.6H609.6C609.4200000000001 142.58 608.98 142.82 608.16 142.82H606.86V138.92H607.46C607.96 138.92 608.28 139.24 608.36 139.96H608.52V135.9H608.36C608.32 136.52 608.0 136.94 607.48 136.94H606.86V133.24H608.16C608.98 133.24 609.4200000000001 133.48 609.6 134.46H609.76V131.06H603.5V131.22C604.02 131.38 604.44 131.92 604.44 132.62Z" fill="#B20000"/>
  <path d="M616.64 145.0V144.84C616.3199999999999 144.78 616.18 144.62 616.18 144.3V137.1C616.18 136.14 615.78 135.62 614.8 135.62C614.06 135.62 613.52 135.94 613.06 136.44V135.38L610.36 136.84V136.94C610.68 136.96 610.8199999999999 137.16 610.8199999999999 137.6V145.0H613.52V144.84C613.2199999999999 144.8 613.06 144.62 613.06 144.28V138.12C613.06 137.66 613.1999999999999 137.42 613.52 137.42C613.8399999999999 137.42 613.9399999999999 137.66 613.9399999999999 138.1V145.0Z" fill="#B20000"/>
  <path d="M620.3199999999999 136.28C620.0799999999999 135.86 619.6399999999999 135.6 618.9599999999999 135.6C617.8199999999999 135.6 617.2399999999999 136.34 617.2399999999999 137.9V142.56C617.2399999999999 143.92 617.6199999999999 144.8 618.9799999999999 144.8C619.5199999999999 144.8 619.9599999999999 144.68 620.3199999999999 144.38V145.92C620.3199999999999 146.32 620.16 146.42 619.8999999999999 146.42C619.66 146.42 619.4799999999999 146.28 619.4799999999999 145.92V145.36L617.5199999999999 145.96V146.3C617.5199999999999 147.58 618.28 148.14 619.18 148.14H620.78C621.9999999999999 148.14 622.56 147.42 622.56 146.3V136.5C622.56 136.06 622.6999999999999 135.86 623.0199999999999 135.84V135.68H620.92C620.6399999999999 135.68 620.3199999999999 135.82 620.3199999999999 136.28ZM620.3199999999999 142.5C620.3199999999999 142.82 620.1399999999999 142.98 619.8999999999999 142.98C619.6199999999999 142.98 619.4799999999999 142.82 619.4799999999999 142.5V137.96C619.4799999999999 137.66 619.5999999999999 137.42 619.8999999999999 137.42C620.16 137.42 620.3199999999999 137.62 620.3199999999999 137.96Z" fill="#B20000"/>
  <path d="M626.2799999999999 134.06C626.2799999999999 133.36 625.7799999999999 132.76 625.0199999999999 132.76C624.2199999999999 132.76 623.7399999999999 133.34 623.7399999999999 134.06C623.7399999999999 134.82 624.2399999999999 135.36 625.0199999999999 135.36C625.7599999999999 135.36 626.2799999999999 134.8 626.2799999999999 134.06ZM626.5799999999999 145.0V144.84C626.2799999999999 144.8 626.1199999999999 144.62 626.1199999999999 144.32V135.38L623.42 136.84V136.94C623.7399999999999 136.94 623.8799999999999 137.16 623.8799999999999 137.6V145.0Z" fill="#B20000"/>
  <path d="M633.4599999999999 145.0V144.84C633.1399999999999 144.78 632.9999999999999 144.62 632.9999999999999 144.3V137.1C632.9999999999999 136.14 632.5999999999999 135.62 631.6199999999999 135.62C630.8799999999999 135.62 630.3399999999999 135.94 629.8799999999999 136.44V135.38L627.18 136.84V136.94C627.4999999999999 136.96 627.6399999999999 137.16 627.6399999999999 137.6V145.0H630.3399999999999V144.84C630.0399999999998 144.8 629.8799999999999 144.62 629.8799999999999 144.28V138.12C629.8799999999999 137.66 630.0199999999999 137.42 630.3399999999999 137.42C630.6599999999999 137.42 630.7599999999999 137.66 630.7599999999999 138.1V145.0Z" fill="#B20000"/>
  <path d="M639.3799999999999 141.82H639.2799999999999C639.1199999999999 142.86 638.6199999999999 143.14 637.9199999999998 143.14H636.8999999999999C636.4799999999999 143.14 636.2999999999998 142.86 636.2999999999998 142.54V141.98L638.7999999999998 140.06C639.2399999999999 139.74 639.3799999999999 139.32 639.3799999999999 138.88V137.32C639.3799999999999 136.54 638.8599999999999 135.68 637.7799999999999 135.68H635.6599999999999C634.7799999999999 135.68 634.0599999999998 136.32 634.0599999999998 137.44V143.38C634.0599999999998 144.14 634.6599999999999 145.0 635.6399999999999 145.0H637.6599999999999C638.7399999999999 145.0 639.3799999999999 144.36 639.3799999999999 143.12ZM637.1799999999998 138.58C637.1799999999998 138.84 637.0599999999998 139.08 636.7999999999998 139.28L636.2999999999998 139.66V138.0C636.2999999999998 137.58 636.4599999999998 137.42 636.7599999999999 137.42C637.0399999999998 137.42 637.1799999999998 137.66 637.1799999999998 138.0Z" fill="#B20000"/>
  <path d="M645.4999999999999 141.82H645.3999999999999C645.2399999999999 142.86 644.7399999999999 143.14 644.0399999999998 143.14H643.0199999999999C642.5999999999999 143.14 642.4199999999998 142.86 642.4199999999998 142.54V141.98L644.9199999999998 140.06C645.3599999999999 139.74 645.4999999999999 139.32 645.4999999999999 138.88V137.32C645.4999999999999 136.54 644.9799999999999 135.68 643.8999999999999 135.68H641.7799999999999C640.8999999999999 135.68 640.1799999999998 136.32 640.1799999999998 137.44V143.38C640.1799999999998 144.14 640.7799999999999 145.0 641.7599999999999 145.0H643.7799999999999C644.8599999999999 145.0 645.4999999999999 144.36 645.4999999999999 143.12ZM643.2999999999998 138.58C643.2999999999998 138.84 643.1799999999998 139.08 642.9199999999998 139.28L642.4199999999998 139.66V138.0C642.4199999999998 137.58 642.5799999999998 137.42 642.8799999999999 137.42C643.1599999999999 137.42 643.2999999999998 137.66 643.2999999999998 138.0Z" fill="#B20000"/>
  <path d="M651.7999999999998 138.3V137.02C651.7999999999998 136.06 651.2799999999999 135.6 650.3599999999999 135.6C649.8199999999998 135.6 649.2399999999999 135.84 648.7999999999998 136.26V135.38L646.0999999999999 136.84V136.94C646.4199999999998 136.94 646.5599999999998 137.16 646.5599999999998 137.6V145.0H649.2599999999999V144.84C648.9599999999998 144.8 648.7999999999998 144.64 648.7999999999998 144.26V138.12C648.7999999999998 137.64 648.9799999999999 137.42 649.2999999999998 137.42C649.5999999999999 137.42 649.7599999999999 137.66 649.7599999999999 138.1V140.22Z" fill="#B20000"/>
</svg>
