<svg xmlns="http://www.w3.org/2000/svg" width="1200" height="220" viewBox="0 0 1200 220">
  <rect width="1200" height="220" fill="#0A0A0A"/>

  <style>
    @keyframes float { 0% { transform: translateY(0); opacity: 0.3; } 50% { opacity: 0.7; } 100% { transform: translateY(-220px); opacity: 0; } }
    @keyframes drift { 0% { transform: translate(0,0); opacity: 0.2; } 50% { opacity: 0.5; } 100% { transform: translate(20px,-220px); opacity: 0; } }
    @keyframes driftL { 0% { transform: translate(0,0); opacity: 0.25; } 50% { opacity: 0.6; } 100% { transform: translate(-15px,-220px); opacity: 0; } }
    @keyframes flicker { 0% { opacity: 0.2; } 25% { opacity: 0.5; } 50% { opacity: 0.3; } 75% { opacity: 0.6; } 100% { opacity: 0.2; } }
    .e { animation: float linear infinite; }
    .ed { animation: drift linear infinite; }
    .el { animation: driftL linear infinite; }
    .s { animation: flicker ease-in-out infinite; }
  </style>

  <!-- Red embers -->
  <circle class="e" cx="80" cy="200" r="2.5" fill="#B20000" style="animation-duration:6s;animation-delay:0s"/>
  <circle class="ed" cx="180" cy="190" r="1.8" fill="#B20000" style="animation-duration:7s;animation-delay:1s"/>
  <circle class="e" cx="320" cy="210" r="3" fill="#B20000" style="animation-duration:5s;animation-delay:0.5s"/>
  <circle class="el" cx="450" cy="195" r="2" fill="#B20000" style="animation-duration:8s;animation-delay:2s"/>
  <circle class="ed" cx="600" cy="205" r="2.8" fill="#B20000" style="animation-duration:6.5s;animation-delay:0.8s"/>
  <circle class="e" cx="720" cy="200" r="1.5" fill="#B20000" style="animation-duration:7.5s;animation-delay:3s"/>
  <circle class="el" cx="850" cy="210" r="2.2" fill="#B20000" style="animation-duration:5.5s;animation-delay:1.5s"/>
  <circle class="e" cx="980" cy="195" r="3.2" fill="#B20000" style="animation-duration:6s;animation-delay:0.3s"/>
  <circle class="ed" cx="1100" cy="200" r="2" fill="#B20000" style="animation-duration:7s;animation-delay:2.5s"/>
  <circle class="el" cx="1150" cy="210" r="1.8" fill="#B20000" style="animation-duration:8s;animation-delay:4s"/>
  <circle class="ed" cx="150" cy="150" r="2" fill="#B20000" style="animation-duration:5s;animation-delay:3s"/>
  <circle class="e" cx="400" cy="130" r="1.5" fill="#B20000" style="animation-duration:6s;animation-delay:1.2s"/>
  <circle class="el" cx="550" cy="160" r="2.5" fill="#B20000" style="animation-duration:7s;animation-delay:0.7s"/>
  <circle class="e" cx="750" cy="140" r="1.8" fill="#B20000" style="animation-duration:5.5s;animation-delay:2.2s"/>
  <circle class="ed" cx="900" cy="155" r="2.2" fill="#B20000" style="animation-duration:6.5s;animation-delay:3.5s"/>
  <circle class="el" cx="1050" cy="145" r="3" fill="#B20000" style="animation-duration:5s;animation-delay:0.4s"/>

  <!-- Gold embers -->
  <circle class="el" cx="250" cy="205" r="1.5" fill="#C5A059" style="animation-duration:8s;animation-delay:1s"/>
  <circle class="e" cx="500" cy="200" r="2" fill="#C5A059" style="animation-duration:6s;animation-delay:3.5s"/>
  <circle class="ed" cx="670" cy="210" r="1.8" fill="#C5A059" style="animation-duration:7s;animation-delay:0.5s"/>
  <circle class="el" cx="1020" cy="195" r="2.5" fill="#C5A059" style="animation-duration:5.5s;animation-delay:2s"/>
  <circle class="e" cx="350" cy="170" r="1.2" fill="#C5A059" style="animation-duration:7.5s;animation-delay:4s"/>
  <circle class="ed" cx="820" cy="165" r="1.8" fill="#C5A059" style="animation-duration:6s;animation-delay:1.8s"/>

  <!-- Smoke -->
  <circle class="s" cx="120" cy="180" r="1.5" fill="#8E8E8E" style="animation-duration:4s;animation-delay:0s"/>
  <circle class="s" cx="380" cy="170" r="1" fill="#8E8E8E" style="animation-duration:3s;animation-delay:1s"/>
  <circle class="s" cx="530" cy="185" r="1.2" fill="#8E8E8E" style="animation-duration:5s;animation-delay:2s"/>
  <circle class="s" cx="700" cy="175" r="1.5" fill="#8E8E8E" style="animation-duration:3.5s;animation-delay:0.5s"/>
  <circle class="s" cx="950" cy="180" r="1" fill="#8E8E8E" style="animation-duration:4.5s;animation-delay:1.5s"/>
  <circle class="s" cx="1080" cy="190" r="1.3" fill="#8E8E8E" style="animation-duration:3s;animation-delay:3s"/>

  <!-- Corleone font: Tech Enthusiast -->
  <path d="M499.692 64.424H518.516L524.3399999999999 58.756H488.512V68.584H488.928C489.084 65.98400000000001 490.95599999999996 64.424 493.4 64.424V90.892C493.4 92.712 492.308 94.168 490.95599999999996 94.584V95.0H502.13599999999997V94.584C500.73199999999997 94.272 499.692 92.66 499.692 90.944Z" fill="#F2F2F2"/>
  <path d="M518.4119999999999 86.732H518.1519999999999C517.736 89.436 516.4359999999999 90.164 514.616 90.164H511.96399999999994C510.87199999999996 90.164 510.40399999999994 89.436 510.40399999999994 88.604V87.148L516.904 82.156C518.048 81.324 518.4119999999999 80.232 518.4119999999999 79.088V75.032C518.4119999999999 73.004 517.06 70.768 514.252 70.768H508.73999999999995C506.45199999999994 70.768 504.58 72.432 504.58 75.344V90.788C504.58 92.764 506.14 95.0 508.688 95.0H513.9399999999999C516.7479999999999 95.0 518.4119999999999 93.336 518.4119999999999 90.112ZM512.692 78.30799999999999C512.692 78.98400000000001 512.38 79.608 511.70399999999995 80.128L510.40399999999994 81.116V76.8C510.40399999999994 75.708 510.81999999999994 75.292 511.59999999999997 75.292C512.328 75.292 512.692 75.916 512.692 76.8Z" fill="#F2F2F2"/>
  <path d="M533.804 86.732H533.492C533.024 88.812 531.932 90.164 529.956 90.164H528.552C526.94 90.164 526.316 89.488 526.316 87.98V77.99600000000001C526.316 76.176 527.096 75.55199999999999 528.604 75.55199999999999H530.476C532.4 75.55199999999999 533.128 77.268 533.492 79.036H533.804V74.72C533.804 72.172 532.504 70.768 529.852 70.768H525.12C521.792 70.768 520.492 72.48400000000001 520.492 75.916V89.852C520.492 93.856 522.416 95.0 525.276 95.0H529.176C532.764 95.0 533.804 93.388 533.804 91.048Z" fill="#F2F2F2"/>
  <path d="M551.6400000000001 95.0V94.584C550.808 94.428 550.4440000000001 94.012 550.4440000000001 93.18V74.46000000000001C550.4440000000001 71.964 549.456 70.612 546.908 70.612C545.0360000000001 70.612 543.58 71.444 542.384 72.744V58.756L535.364 62.604V62.864000000000004C536.196 62.916000000000004 536.5600000000001 63.436 536.5600000000001 64.58V95.0H543.58V94.584C542.8000000000001 94.48 542.384 94.012 542.384 93.128V77.112C542.384 75.916 542.748 75.292 543.58 75.292C544.412 75.292 544.62 75.916 544.62 77.06V95.0Z" fill="#F2F2F2"/>
  <path d="M563.1320000000001 95.0H579.408V86.16H578.9920000000001C578.5240000000001 88.708 577.3800000000001 89.332 575.248 89.332H571.868V79.19200000000001H573.4280000000001C574.7280000000001 79.19200000000001 575.5600000000001 80.024 575.768 81.896H576.1840000000001V71.34H575.768C575.6640000000001 72.952 574.8320000000001 74.044 573.48 74.044H571.868V64.424H590.484L596.36 58.756H563.1320000000001V59.172000000000004C564.484 59.588 565.576 60.992000000000004 565.576 62.812000000000005V90.944C565.576 92.764 564.484 94.168 563.1320000000001 94.584Z" fill="#F2F2F2"/>
  <path d="M597.088 95.0V94.584C596.256 94.428 595.892 94.012 595.892 93.18V74.46000000000001C595.892 71.964 594.852 70.612 592.304 70.612C590.38 70.612 588.976 71.444 587.78 72.744V69.988L580.76 73.784V74.044C581.592 74.096 581.956 74.616 581.956 75.76V95.0H588.976V94.584C588.196 94.48 587.78 94.012 587.78 93.128V77.112C587.78 75.916 588.144 75.292 588.976 75.292C589.808 75.292 590.068 75.916 590.068 77.06V95.0Z" fill="#F2F2F2"/>
  <path d="M608.0600000000001 70.768H605.148V64.424L598.128 68.376V68.584C598.96 68.584 599.3240000000001 69.156 599.3240000000001 70.3V95.0H606.344V94.584C605.5640000000001 94.48 605.148 94.012 605.148 93.232V75.55199999999999H608.0600000000001Z" fill="#F2F2F2"/>
  <path d="M625.1680000000001 95.0V94.584C624.336 94.428 623.9720000000001 94.012 623.9720000000001 93.18V74.46000000000001C623.9720000000001 71.964 622.984 70.612 620.436 70.612C618.5640000000001 70.612 617.1080000000001 71.444 615.912 72.744V58.756L608.892 62.604V62.864000000000004C609.724 62.916000000000004 610.0880000000001 63.436 610.0880000000001 64.58V95.0H617.1080000000001V94.584C616.3280000000001 94.48 615.912 94.012 615.912 93.128V77.112C615.912 75.916 616.2760000000001 75.292 617.1080000000001 75.292C617.94 75.292 618.148 75.916 618.148 77.06V95.0Z" fill="#F2F2F2"/>
  <path d="M643.0560000000002 95.0V94.584C642.224 94.48 641.8600000000001 94.064 641.8600000000001 92.816V69.988L634.8400000000001 73.784V74.044C635.6720000000001 74.044 636.0360000000001 74.72 636.0360000000001 75.55199999999999V88.708C636.0360000000001 89.904 635.5160000000001 90.476 634.5800000000002 90.476C633.6440000000001 90.476 633.2280000000001 89.956 633.2280000000001 88.708V69.988L626.2080000000001 73.784V74.044C627.1440000000001 74.044 627.4040000000001 74.824 627.4040000000001 75.708V90.528C627.4040000000001 93.596 628.7560000000001 95.156 631.3560000000001 95.208C633.0200000000001 95.208 634.8400000000001 94.532 636.0360000000001 93.18C636.0360000000001 94.376 636.5560000000002 95.0 637.3880000000001 95.0Z" fill="#F2F2F2"/>
  <path d="M658.4480000000001 86.472C658.4480000000001 84.444 657.7200000000001 82.78 655.3800000000001 81.272L651.8440000000002 79.036C650.7520000000002 78.36 650.4400000000002 77.736 650.4400000000002 76.852C650.4400000000002 75.968 650.9600000000002 75.604 652.0520000000001 75.604H653.6120000000001C655.6920000000001 75.604 657.4080000000001 76.8 657.8240000000002 79.036H658.1880000000001V75.084C658.1880000000001 72.64 656.6280000000002 70.768 653.7680000000001 70.768H649.2960000000002C645.9680000000002 70.768 644.6160000000001 72.69200000000001 644.6160000000001 75.396V78.62C644.6160000000001 81.636 646.7480000000002 82.78 647.8400000000001 83.456L650.6480000000001 85.224C651.6880000000001 85.848 652.6240000000001 86.42 652.6240000000001 88.344C652.6240000000001 89.124 652.1560000000002 90.164 650.8040000000001 90.164H649.1920000000001C646.8000000000002 90.164 645.1880000000001 88.864 644.9800000000001 86.732H644.6160000000001V90.424C644.6160000000001 93.024 646.1240000000001 95.0 649.0360000000002 95.0H654.0280000000001C656.8880000000001 95.0 658.4480000000001 93.024 658.4480000000001 90.632Z" fill="#F2F2F2"/>
  <path d="M667.4440000000002 66.556C667.4440000000002 64.736 666.1440000000001 63.176 664.1680000000001 63.176C662.0880000000002 63.176 660.8400000000001 64.684 660.8400000000001 66.556C660.8400000000001 68.532 662.1400000000002 69.936 664.1680000000001 69.936C666.0920000000002 69.936 667.4440000000002 68.48 667.4440000000002 66.556ZM668.2240000000002 95.0V94.584C667.4440000000002 94.48 667.0280000000001 94.012 667.0280000000001 93.232V69.988L660.0080000000002 73.784V74.044C660.8400000000001 74.044 661.2040000000002 74.616 661.2040000000002 75.76V95.0Z" fill="#F2F2F2"/>
  <path d="M675.8680000000002 86.576C675.8680000000002 85.588 676.1280000000002 84.80799999999999 676.6480000000001 84.392L678.0520000000001 83.248V89.228C678.0520000000001 90.06 677.5840000000002 90.476 676.9600000000002 90.476C676.2320000000001 90.476 675.8680000000002 90.06 675.8680000000002 89.228ZM670.0440000000001 91.568C670.0440000000001 93.7 671.2400000000001 95.0 673.3200000000002 95.0H675.0360000000002C676.5440000000001 95.0 677.4800000000001 94.636 678.0520000000001 93.336C678.3640000000001 94.636 679.0400000000001 95.0 680.4960000000001 95.0H685.0720000000001V94.584C684.1880000000001 94.428 683.8760000000001 94.064 683.8760000000001 93.024V75.136C683.8760000000001 72.588 682.3680000000002 70.768 679.8200000000002 70.768H674.6720000000001C672.6440000000001 70.768 670.8240000000001 71.86 670.8240000000001 74.2V77.684H671.0840000000002C671.8640000000001 75.812 673.1120000000001 75.55199999999999 674.6720000000001 75.55199999999999H677.1680000000001C677.7400000000001 75.55199999999999 678.0520000000001 75.864 678.0520000000001 76.332V76.852C678.0520000000001 77.268 677.7920000000001 77.632 677.2720000000002 78.048L671.3440000000002 82.416C670.4600000000002 83.144 670.0440000000001 84.132 670.0440000000001 85.588Z" fill="#F2F2F2"/>
  <path d="M700.724 86.472C700.724 84.444 699.9960000000001 82.78 697.6560000000001 81.272L694.1200000000001 79.036C693.0280000000001 78.36 692.7160000000001 77.736 692.7160000000001 76.852C692.7160000000001 75.968 693.2360000000001 75.604 694.3280000000001 75.604H695.888C697.9680000000001 75.604 699.6840000000001 76.8 700.1000000000001 79.036H700.464V75.084C700.464 72.64 698.9040000000001 70.768 696.0440000000001 70.768H691.5720000000001C688.2440000000001 70.768 686.892 72.69200000000001 686.892 75.396V78.62C686.892 81.636 689.0240000000001 82.78 690.1160000000001 83.456L692.9240000000001 85.224C693.964 85.848 694.9000000000001 86.42 694.9000000000001 88.344C694.9000000000001 89.124 694.4320000000001 90.164 693.08 90.164H691.4680000000001C689.0760000000001 90.164 687.464 88.864 687.2560000000001 86.732H686.892V90.424C686.892 93.024 688.4000000000001 95.0 691.3120000000001 95.0H696.3040000000001C699.1640000000001 95.0 700.724 93.024 700.724 90.632Z" fill="#F2F2F2"/>
  <path d="M712.2160000000001 70.768H709.3040000000001V64.424L702.2840000000001 68.376V68.584C703.1160000000001 68.584 703.4800000000001 69.156 703.4800000000001 70.3V95.0H710.5000000000001V94.584C709.7200000000001 94.48 709.3040000000001 94.012 709.3040000000001 93.232V75.55199999999999H712.2160000000001Z" fill="#F2F2F2"/>

  <!-- Corleone font: Software Engineer -->
  <path d="M559.311 124.666H545.429C543.999 124.666 543.449 125.524 543.449 126.536V130.1C543.449 131.09 543.4929999999999 131.398 544.109 132.036L546.0889999999999 133.906C546.375 134.192 546.5509999999999 134.5 546.5509999999999 134.808V136.656C546.5509999999999 137.25 546.067 137.602 545.253 137.602C544.241 137.602 543.779 137.14 543.625 135.93H543.449V138.218C543.449 139.208 544.0649999999999 140.0 545.209 140.0H547.343C548.553 140.0 549.213 139.318 549.213 138.218V134.038C549.213 133.488 549.037 133.092 548.729 132.762L546.3969999999999 130.54C546.221 130.342 546.111 130.122 546.111 129.836V127.79C546.111 127.284 546.155 127.064 546.771 127.064H556.869Z" fill="#B20000"/>
  <path d="M553.899 137.558C553.899 137.91 553.701 138.086 553.437 138.086C553.129 138.086 552.975 137.91 552.975 137.558V132.256C552.975 131.926 553.107 131.662 553.437 131.662C553.7230000000001 131.662 553.899 131.882 553.899 132.256ZM554.559 140.0C555.659 140.0 556.363 139.186 556.363 138.086V131.662C556.363 130.474 555.615 129.748 554.559 129.748H552.315C551.259 129.748 550.5110000000001 130.474 550.5110000000001 131.662V138.086C550.5110000000001 139.186 551.215 140.0 552.315 140.0Z" fill="#B20000"/>
  <path d="M559.773 126.998C559.773 126.646 559.949 126.514 560.103 126.514C560.301 126.514 560.433 126.646 560.433 126.998V128.714L562.457 126.998V126.382C562.457 125.37 561.907 124.666 560.851 124.666H558.981C558.057 124.666 557.309 125.436 557.309 126.338V140.0H560.257V139.824C559.949 139.78 559.773 139.582 559.773 139.252V131.772H561.005V129.748H559.773Z" fill="#B20000"/>
  <path d="M566.769 129.748H565.537V127.064L562.567 128.736V128.824C562.919 128.824 563.073 129.066 563.073 129.55V140.0H566.043V139.824C565.713 139.78 565.537 139.582 565.537 139.252V131.772H566.769Z" fill="#B20000"/>
  <path d="M578.5169999999999 129.924V129.748H575.679V129.924C575.9649999999999 129.968 576.1189999999999 130.1 576.1189999999999 130.364C576.1189999999999 130.40800000000002 576.097 130.606 576.0749999999999 130.672L575.1949999999999 135.446L574.117 129.748H572.0709999999999L570.971 135.446L570.135 130.672C570.1129999999999 130.54 570.091 130.43 570.091 130.342C570.091 130.1 570.223 129.99 570.4649999999999 129.924V129.748H567.011V129.924C567.319 129.99 567.5169999999999 130.21 567.6049999999999 130.65L569.7389999999999 140.0H571.785L572.775 134.808L573.765 140.0H575.8109999999999L577.9449999999999 130.716C578.077 130.166 578.2529999999999 129.99 578.5169999999999 129.924Z" fill="#B20000"/>
  <path d="M581.4209999999999 136.436C581.4209999999999 136.018 581.531 135.688 581.751 135.512L582.3449999999999 135.028V137.558C582.3449999999999 137.91 582.1469999999999 138.086 581.8829999999999 138.086C581.5749999999999 138.086 581.4209999999999 137.91 581.4209999999999 137.558ZM578.957 138.548C578.957 139.45 579.463 140.0 580.343 140.0H581.069C581.707 140.0 582.103 139.846 582.3449999999999 139.296C582.477 139.846 582.7629999999999 140.0 583.3789999999999 140.0H585.3149999999999V139.824C584.9409999999999 139.758 584.809 139.604 584.809 139.164V131.596C584.809 130.518 584.1709999999999 129.748 583.093 129.748H580.915C580.0569999999999 129.748 579.2869999999999 130.21 579.2869999999999 131.2V132.674H579.3969999999999C579.727 131.882 580.255 131.772 580.915 131.772H581.971C582.213 131.772 582.3449999999999 131.904 582.3449999999999 132.102V132.322C582.3449999999999 132.498 582.2349999999999 132.652 582.015 132.828L579.507 134.676C579.1329999999999 134.984 578.957 135.402 578.957 136.018Z" fill="#B20000"/>
  <path d="M592.135 132.63V131.222C592.135 130.166 591.563 129.66 590.5509999999999 129.66C589.957 129.66 589.319 129.924 588.835 130.386V129.418L585.865 131.024V131.13400000000001C586.217 131.13400000000001 586.371 131.376 586.371 131.86V140.0H589.341V139.824C589.011 139.78 588.835 139.604 588.835 139.186V132.432C588.835 131.904 589.033 131.662 589.385 131.662C589.715 131.662 589.891 131.926 589.891 132.41V134.742Z" fill="#B20000"/>
  <path d="M598.7570000000001 136.502H598.647C598.471 137.646 597.921 137.954 597.1510000000001 137.954H596.029C595.567 137.954 595.369 137.646 595.369 137.294V136.678L598.119 134.566C598.6030000000001 134.214 598.7570000000001 133.752 598.7570000000001 133.268V131.552C598.7570000000001 130.694 598.1850000000001 129.748 596.9970000000001 129.748H594.6650000000001C593.697 129.748 592.9050000000001 130.452 592.9050000000001 131.684V138.218C592.9050000000001 139.054 593.565 140.0 594.643 140.0H596.865C598.053 140.0 598.7570000000001 139.296 598.7570000000001 137.932ZM596.337 132.938C596.337 133.224 596.205 133.488 595.919 133.708L595.369 134.126V132.3C595.369 131.838 595.5450000000001 131.662 595.875 131.662C596.183 131.662 596.337 131.926 596.337 132.3Z" fill="#B20000"/>
  <path d="M603.8389999999999 140.0H610.725V136.26H610.549C610.351 137.338 609.867 137.602 608.965 137.602H607.535V133.312H608.1949999999999C608.745 133.312 609.097 133.664 609.185 134.456H609.361V129.99H609.185C609.141 130.672 608.789 131.13400000000001 608.217 131.13400000000001H607.535V127.064H615.411L617.8969999999999 124.666H603.8389999999999V124.842C604.411 125.018 604.8729999999999 125.612 604.8729999999999 126.382V138.284C604.8729999999999 139.054 604.411 139.648 603.8389999999999 139.824Z" fill="#B20000"/>
  <path d="M618.205 140.0V139.824C617.853 139.758 617.699 139.582 617.699 139.23V131.31C617.699 130.254 617.259 129.682 616.181 129.682C615.367 129.682 614.773 130.034 614.267 130.584V129.418L611.297 131.024V131.13400000000001C611.649 131.156 611.803 131.376 611.803 131.86V140.0H614.773V139.824C614.443 139.78 614.267 139.582 614.267 139.208V132.432C614.267 131.926 614.421 131.662 614.773 131.662C615.125 131.662 615.235 131.926 615.235 132.41V140.0Z" fill="#B20000"/>
  <path d="M622.2529999999999 130.40800000000002C621.9889999999999 129.946 621.505 129.66 620.757 129.66C619.5029999999999 129.66 618.865 130.474 618.865 132.19V137.316C618.865 138.812 619.2829999999999 139.78 620.779 139.78C621.3729999999999 139.78 621.857 139.648 622.2529999999999 139.318V141.012C622.2529999999999 141.452 622.077 141.562 621.7909999999999 141.562C621.5269999999999 141.562 621.329 141.408 621.329 141.012V140.396L619.173 141.056V141.43C619.173 142.838 620.0089999999999 143.454 620.9989999999999 143.454H622.7589999999999C624.101 143.454 624.717 142.662 624.717 141.43V130.65C624.717 130.166 624.871 129.946 625.223 129.924V129.748H622.913C622.6049999999999 129.748 622.2529999999999 129.902 622.2529999999999 130.40800000000002ZM622.2529999999999 137.25C622.2529999999999 137.602 622.055 137.778 621.7909999999999 137.778C621.483 137.778 621.329 137.602 621.329 137.25V132.256C621.329 131.926 621.4609999999999 131.662 621.7909999999999 131.662C622.077 131.662 622.2529999999999 131.882 622.2529999999999 132.256Z" fill="#B20000"/>
  <path d="M628.809 127.96600000000001C628.809 127.196 628.259 126.536 627.423 126.536C626.543 126.536 626.015 127.174 626.015 127.96600000000001C626.015 128.802 626.5649999999999 129.39600000000002 627.423 129.39600000000002C628.237 129.39600000000002 628.809 128.78 628.809 127.96600000000001ZM629.139 140.0V139.824C628.809 139.78 628.633 139.582 628.633 139.252V129.418L625.663 131.024V131.13400000000001C626.015 131.13400000000001 626.169 131.376 626.169 131.86V140.0Z" fill="#B20000"/>
  <path d="M636.707 140.0V139.824C636.3549999999999 139.758 636.2009999999999 139.582 636.2009999999999 139.23V131.31C636.2009999999999 130.254 635.761 129.682 634.683 129.682C633.8689999999999 129.682 633.275 130.034 632.769 130.584V129.418L629.799 131.024V131.13400000000001C630.151 131.156 630.305 131.376 630.305 131.86V140.0H633.275V139.824C632.9449999999999 139.78 632.769 139.582 632.769 139.208V132.432C632.769 131.926 632.923 131.662 633.275 131.662C633.627 131.662 633.737 131.926 633.737 132.41V140.0Z" fill="#B20000"/>
  <path d="M643.2189999999999 136.502H643.1089999999999C642.9329999999999 137.646 642.3829999999999 137.954 641.6129999999999 137.954H640.4909999999999C640.0289999999999 137.954 639.8309999999999 137.646 639.8309999999999 137.294V136.678L642.5809999999999 134.566C643.0649999999999 134.214 643.2189999999999 133.752 643.2189999999999 133.268V131.552C643.2189999999999 130.694 642.6469999999999 129.748 641.459 129.748H639.127C638.1589999999999 129.748 637.367 130.452 637.367 131.684V138.218C637.367 139.054 638.0269999999999 140.0 639.1049999999999 140.0H641.3269999999999C642.5149999999999 140.0 643.2189999999999 139.296 643.2189999999999 137.932ZM640.7989999999999 132.938C640.7989999999999 133.224 640.6669999999999 133.488 640.3809999999999 133.708L639.8309999999999 134.126V132.3C639.8309999999999 131.838 640.007 131.662 640.3369999999999 131.662C640.6449999999999 131.662 640.7989999999999 131.926 640.7989999999999 132.3Z" fill="#B20000"/>
  <path d="M649.9509999999999 136.502H649.8409999999999C649.6649999999998 137.646 649.1149999999999 137.954 648.3449999999999 137.954H647.2229999999998C646.7609999999999 137.954 646.5629999999999 137.646 646.5629999999999 137.294V136.678L649.3129999999999 134.566C649.7969999999999 134.214 649.9509999999999 133.752 649.9509999999999 133.268V131.552C649.9509999999999 130.694 649.3789999999999 129.748 648.1909999999999 129.748H645.8589999999999C644.8909999999998 129.748 644.0989999999999 130.452 644.0989999999999 131.684V138.218C644.0989999999999 139.054 644.7589999999999 140.0 645.8369999999999 140.0H648.0589999999999C649.2469999999998 140.0 649.9509999999999 139.296 649.9509999999999 137.932ZM647.5309999999998 132.938C647.5309999999998 133.224 647.3989999999999 133.488 647.1129999999998 133.708L646.5629999999999 134.126V132.3C646.5629999999999 131.838 646.7389999999999 131.662 647.0689999999998 131.662C647.3769999999998 131.662 647.5309999999998 131.926 647.5309999999998 132.3Z" fill="#B20000"/>
  <path d="M656.8809999999999 132.63V131.222C656.8809999999999 130.166 656.3089999999999 129.66 655.2969999999998 129.66C654.7029999999999 129.66 654.0649999999998 129.924 653.5809999999999 130.386V129.418L650.6109999999999 131.024V131.13400000000001C650.9629999999999 131.13400000000001 651.1169999999998 131.376 651.1169999999998 131.86V140.0H654.0869999999999V139.824C653.7569999999998 139.78 653.5809999999999 139.604 653.5809999999999 139.186V132.432C653.5809999999999 131.904 653.7789999999999 131.662 654.1309999999999 131.662C654.4609999999999 131.662 654.6369999999998 131.926 654.6369999999998 132.41V134.742Z" fill="#B20000"/>
</svg>
