<svg xmlns="http://www.w3.org/2000/svg" width="1200" height="220" viewBox="0 0 1200 220">
  <rect width="1200" height="220" fill="#0A0A0A"/>
  <style>
    @keyframes float { 0% { transform: translateY(0); opacity: 0.3; } 50% { opacity: 0.7; } 100% { transform: translateY(-220px); opacity: 0; } }
    @keyframes drift { 0% { transform: translate(0,0); opacity: 0.2; } 50% { opacity: 0.5; } 100% { transform: translate(20px,-220px); opacity: 0; } }
    @keyframes driftL { 0% { transform: translate(0,0); opacity: 0.25; } 50% { opacity: 0.6; } 100% { transform: translate(-15px,-220px); opacity: 0; } }
    @keyframes flicker { 0% { opacity: 0.2; } 25% { opacity: 0.5; } 50% { opacity: 0.3; } 75% { opacity: 0.6; } 100% { opacity: 0.2; } }
    .e { animation: float linear infinite; } .ed { animation: drift linear infinite; } .el { animation: driftL linear infinite; } .s { animation: flicker ease-in-out infinite; }
  </style>
  <circle class="e" cx="80" cy="200" r="2.5" fill="#B20000" style="animation-duration:6s;animation-delay:0s"/>
  <circle class="ed" cx="180" cy="190" r="1.8" fill="#B20000" style="animation-duration:7s;animation-delay:1s"/>
  <circle class="e" cx="320" cy="210" r="3" fill="#B20000" style="animation-duration:5s;animation-delay:0.5s"/>
  <circle class="el" cx="450" cy="195" r="2" fill="#B20000" style="animation-duration:8s;animation-delay:2s"/>
  <circle class="ed" cx="600" cy="205" r="2.8" fill="#B20000" style="animation-duration:6.5s;animation-delay:0.8s"/>
  <circle class="e" cx="720" cy="200" r="1.5" fill="#B20000" style="animation-duration:7.5s;animation-delay:3s"/>
  <circle class="el" cx="850" cy="210" r="2.2" fill="#B20000" style="animation-duration:5.5s;animation-delay:1.5s"/>
  <circle class="e" cx="980" cy="195" r="3.2" fill="#B20000" style="animation-duration:6s;animation-delay:0.3s"/>
  <circle class="ed" cx="1100" cy="200" r="2" fill="#B20000" style="animation-duration:7s;animation-delay:2.5s"/>
  <circle class="el" cx="1150" cy="210" r="1.8" fill="#B20000" style="animation-duration:8s;animation-delay:4s"/>
  <circle class="ed" cx="150" cy="150" r="2" fill="#B20000" style="animation-duration:5s;animation-delay:3s"/>
  <circle class="e" cx="400" cy="130" r="1.5" fill="#B20000" style="animation-duration:6s;animation-delay:1.2s"/>
  <circle class="el" cx="550" cy="160" r="2.5" fill="#B20000" style="animation-duration:7s;animation-delay:0.7s"/>
  <circle class="e" cx="750" cy="140" r="1.8" fill="#B20000" style="animation-duration:5.5s;animation-delay:2.2s"/>
  <circle class="ed" cx="900" cy="155" r="2.2" fill="#B20000" style="animation-duration:6.5s;animation-delay:3.5s"/>
  <circle class="el" cx="1050" cy="145" r="3" fill="#B20000" style="animation-duration:5s;animation-delay:0.4s"/>
  <circle class="el" cx="250" cy="205" r="1.5" fill="#C5A059" style="animation-duration:8s;animation-delay:1s"/>
  <circle class="e" cx="500" cy="200" r="2" fill="#C5A059" style="animation-duration:6s;animation-delay:3.5s"/>
  <circle class="ed" cx="670" cy="210" r="1.8" fill="#C5A059" style="animation-duration:7s;animation-delay:0.5s"/>
  <circle class="el" cx="1020" cy="195" r="2.5" fill="#C5A059" style="animation-duration:5.5s;animation-delay:2s"/>
  <circle class="e" cx="350" cy="170" r="1.2" fill="#C5A059" style="animation-duration:7.5s;animation-delay:4s"/>
  <circle class="ed" cx="820" cy="165" r="1.8" fill="#C5A059" style="animation-duration:6s;animation-delay:1.8s"/>
  <circle class="s" cx="120" cy="180" r="1.5" fill="#8E8E8E" style="animation-duration:4s;animation-delay:0s"/>
  <circle class="s" cx="380" cy="170" r="1" fill="#8E8E8E" style="animation-duration:3s;animation-delay:1s"/>
  <circle class="s" cx="530" cy="185" r="1.2" fill="#8E8E8E" style="animation-duration:5s;animation-delay:2s"/>
  <circle class="s" cx="700" cy="175" r="1.5" fill="#8E8E8E" style="animation-duration:3.5s;animation-delay:0.5s"/>
  <circle class="s" cx="950" cy="180" r="1" fill="#8E8E8E" style="animation-duration:4.5s;animation-delay:1.5s"/>
  <circle class="s" cx="1080" cy="190" r="1.3" fill="#8E8E8E" style="animation-duration:3s;animation-delay:3s"/>
  <path d="M432.46500000000003 57.27H404.65500000000003V74.28H405.375C405.64500000000004 69.78 408.885 67.08000000000001 413.115 67.08000000000001V112.89C413.115 116.04 411.225 118.56 408.885 119.28V120.0H428.235V119.28C425.805 118.74 424.005 115.95 424.005 112.98V67.08000000000001C428.235 67.08000000000001 431.475 69.78 431.745 74.28H432.46500000000003Z" fill="#F2F2F2"/>
  <path d="M460.00500000000005 105.69H459.55500000000006C458.83500000000004 110.37 456.58500000000004 111.63 453.43500000000006 111.63H448.845C446.95500000000004 111.63 446.14500000000004 110.37 446.14500000000004 108.93V106.41L457.39500000000004 97.77C459.37500000000006 96.33 460.00500000000005 94.44 460.00500000000005 92.46000000000001V85.44C460.00500000000005 81.93 457.665 78.06 452.80500000000006 78.06H443.26500000000004C439.30500000000006 78.06 436.06500000000005 80.94 436.06500000000005 85.98V112.71C436.06500000000005 116.13 438.76500000000004 120.0 443.17500000000007 120.0H452.26500000000004C457.12500000000006 120.0 460.00500000000005 117.12 460.00500000000005 111.54ZM450.105 91.11C450.105 92.28 449.56500000000005 93.36 448.39500000000004 94.26L446.14500000000004 95.97V88.5C446.14500000000004 86.61 446.86500000000007 85.89 448.21500000000003 85.89C449.475 85.89 450.105 86.97 450.105 88.5Z" fill="#F2F2F2"/>
  <path d="M486.64500000000004 105.69H486.1050000000001C485.2950000000001 109.29 483.4050000000001 111.63 479.98500000000007 111.63H477.55500000000006C474.76500000000004 111.63 473.68500000000006 110.46000000000001 473.68500000000006 107.85V90.57C473.68500000000006 87.42 475.0350000000001 86.34 477.64500000000004 86.34H480.88500000000005C484.2150000000001 86.34 485.4750000000001 89.31 486.1050000000001 92.37H486.64500000000004V84.9C486.64500000000004 80.49000000000001 484.39500000000004 78.06 479.80500000000006 78.06H471.61500000000007C465.8550000000001 78.06 463.6050000000001 81.03 463.6050000000001 86.97V111.09C463.6050000000001 118.02 466.93500000000006 120.0 471.88500000000005 120.0H478.63500000000005C484.8450000000001 120.0 486.64500000000004 117.21 486.64500000000004 113.16Z" fill="#F2F2F2"/>
  <path d="M517.5150000000001 120.0V119.28C516.075 119.01 515.445 118.29 515.445 116.85V84.45C515.445 80.13 513.735 77.78999999999999 509.32500000000005 77.78999999999999C506.08500000000004 77.78999999999999 503.56500000000005 79.23 501.49500000000006 81.48V57.27L489.345 63.93V64.38C490.785 64.47 491.4150000000001 65.37 491.4150000000001 67.35V120.0H503.56500000000005V119.28C502.21500000000003 119.1 501.49500000000006 118.29 501.49500000000006 116.76V89.04C501.49500000000006 86.97 502.12500000000006 85.89 503.56500000000005 85.89C505.00500000000005 85.89 505.36500000000007 86.97 505.36500000000007 88.95V120.0Z" fill="#F2F2F2"/>
  <path d="M542.445 112.98C542.445 116.13 540.5550000000001 118.56 538.215 119.28V120.0H566.3850000000001V104.7H565.6650000000001C564.855 109.11 562.8750000000001 110.19 559.1850000000001 110.19H553.335V92.64H556.0350000000001C558.2850000000001 92.64 559.725 94.08 560.085 97.32H560.8050000000001V79.05000000000001H560.085C559.9050000000001 81.84 558.465 83.73 556.1250000000001 83.73H553.335V67.08000000000001H559.1850000000001C562.8750000000001 67.08000000000001 564.855 68.16 565.6650000000001 72.57H566.3850000000001V57.27H538.215V57.99C540.5550000000001 58.71 542.445 61.14 542.445 64.28999999999999Z" fill="#F2F2F2"/>
  <path d="M597.345 120.0V119.28C595.9050000000001 119.01 595.2750000000001 118.29 595.2750000000001 116.85V84.45C595.2750000000001 80.13 593.475 77.78999999999999 589.065 77.78999999999999C585.735 77.78999999999999 583.3050000000001 79.23 581.235 81.48V76.71000000000001L569.085 83.28V83.73C570.5250000000001 83.82 571.1550000000001 84.72 571.1550000000001 86.7V120.0H583.3050000000001V119.28C581.955 119.1 581.235 118.29 581.235 116.76V89.04C581.235 86.97 581.865 85.89 583.3050000000001 85.89C584.745 85.89 585.195 86.97 585.195 88.95V120.0Z" fill="#F2F2F2"/>
  <path d="M616.425 78.06H611.295V67.08000000000001L599.145 73.92V74.28C600.585 74.28 601.215 75.27000000000001 601.215 77.25V120.0H613.365V119.28C612.015 119.1 611.295 118.29 611.295 116.94V86.34H616.425Z" fill="#F2F2F2"/>
  <path d="M645.945 120.0V119.28C644.505 119.01 643.875 118.29 643.875 116.85V84.45C643.875 80.13 642.165 77.78999999999999 637.755 77.78999999999999C634.515 77.78999999999999 631.995 79.23 629.925 81.48V57.27L617.775 63.93V64.38C619.215 64.47 619.845 65.37 619.845 67.35V120.0H631.995V119.28C630.645 119.1 629.925 118.29 629.925 116.76V89.04C629.925 86.97 630.555 85.89 631.995 85.89C633.435 85.89 633.795 86.97 633.795 88.95V120.0Z" fill="#F2F2F2"/>
  <path d="M676.905 120.0V119.28C675.465 119.1 674.835 118.38 674.835 116.22V76.71000000000001L662.6850000000001 83.28V83.73C664.125 83.73 664.755 84.9 664.755 86.34V109.11C664.755 111.18 663.855 112.17 662.235 112.17C660.615 112.17 659.895 111.27 659.895 109.11V76.71000000000001L647.745 83.28V83.73C649.365 83.73 649.815 85.08 649.815 86.61V112.26C649.815 117.57 652.155 120.27 656.655 120.36C659.5350000000001 120.36 662.6850000000001 119.19 664.755 116.85C664.755 118.92 665.655 120.0 667.095 120.0Z" fill="#F2F2F2"/>
  <path d="M703.5450000000001 105.24C703.5450000000001 101.73 702.2850000000001 98.85 698.235 96.24000000000001L692.115 92.37C690.225 91.2 689.6850000000001 90.12 689.6850000000001 88.59C689.6850000000001 87.06 690.585 86.43 692.475 86.43H695.1750000000001C698.7750000000001 86.43 701.7450000000001 88.5 702.465 92.37H703.095V85.53C703.095 81.30000000000001 700.3950000000001 78.06 695.445 78.06H687.705C681.945 78.06 679.605 81.39 679.605 86.07V91.65C679.605 96.87 683.2950000000001 98.85 685.1850000000001 100.02L690.0450000000001 103.08C691.845 104.16 693.465 105.15 693.465 108.48C693.465 109.83 692.6550000000001 111.63 690.315 111.63H687.5250000000001C683.3850000000001 111.63 680.595 109.38 680.235 105.69H679.605V112.08C679.605 116.58 682.215 120.0 687.2550000000001 120.0H695.8950000000001C700.845 120.0 703.5450000000001 116.58 703.5450000000001 112.44Z" fill="#F2F2F2"/>
  <path d="M719.115 70.77000000000001C719.115 67.62 716.865 64.92 713.445 64.92C709.845 64.92 707.6850000000001 67.53 707.6850000000001 70.77000000000001C707.6850000000001 74.19 709.9350000000001 76.62 713.445 76.62C716.775 76.62 719.115 74.1 719.115 70.77000000000001ZM720.465 120.0V119.28C719.115 119.1 718.395 118.29 718.395 116.94V76.71000000000001L706.245 83.28V83.73C707.6850000000001 83.73 708.315 84.72 708.315 86.7V120.0Z" fill="#F2F2F2"/>
  <path d="M733.6949999999999 105.42C733.6949999999999 103.71000000000001 734.145 102.36 735.045 101.64L737.475 99.66V110.01C737.475 111.45 736.665 112.17 735.585 112.17C734.3249999999999 112.17 733.6949999999999 111.45 733.6949999999999 110.01ZM723.615 114.06C723.615 117.75 725.685 120.0 729.285 120.0H732.255C734.865 120.0 736.485 119.37 737.475 117.12C738.015 119.37 739.185 120.0 741.7049999999999 120.0H749.625V119.28C748.095 119.01 747.555 118.38 747.555 116.58V85.62C747.555 81.21000000000001 744.9449999999999 78.06 740.535 78.06H731.625C728.115 78.06 724.965 79.95 724.965 84.0V90.03H725.415C726.765 86.78999999999999 728.925 86.34 731.625 86.34H735.9449999999999C736.935 86.34 737.475 86.88 737.475 87.69V88.59C737.475 89.31 737.025 89.94 736.125 90.66L725.865 98.22C724.335 99.48 723.615 101.19 723.615 103.71000000000001Z" fill="#F2F2F2"/>
  <path d="M776.715 105.24C776.715 101.73 775.455 98.85 771.405 96.24000000000001L765.285 92.37C763.395 91.2 762.855 90.12 762.855 88.59C762.855 87.06 763.755 86.43 765.645 86.43H768.345C771.945 86.43 774.915 88.5 775.635 92.37H776.265V85.53C776.265 81.30000000000001 773.565 78.06 768.615 78.06H760.875C755.115 78.06 752.775 81.39 752.775 86.07V91.65C752.775 96.87 756.465 98.85 758.355 100.02L763.215 103.08C765.015 104.16 766.635 105.15 766.635 108.48C766.635 109.83 765.825 111.63 763.485 111.63H760.695C756.5550000000001 111.63 753.765 109.38 753.405 105.69H752.775V112.08C752.775 116.58 755.385 120.0 760.4250000000001 120.0H769.065C774.015 120.0 776.715 116.58 776.715 112.44Z" fill="#F2F2F2"/>
  <path d="M796.6949999999999 78.06H791.5649999999999V67.08000000000001L779.415 73.92V74.28C780.855 74.28 781.485 75.27000000000001 781.485 77.25V120.0H793.635V119.28C792.285 119.1 791.5649999999999 118.29 791.5649999999999 116.94V86.34H796.6949999999999Z" fill="#F2F2F2"/>
  <path d="M526.38 158.65C526.38 157.84 527.0400000000001 157.36 528.15 157.36C529.53 157.36 530.16 157.99 530.37 159.64H530.61V156.52C530.61 155.17000000000002 529.77 154.09 528.21 154.09H525.3000000000001C523.65 154.09 522.75 155.02 522.75 156.52V161.5C522.75 162.85 522.84 163.39 523.65 164.14L526.35 166.69C526.74 167.08 526.98 167.5 526.98 167.92V170.44C526.98 171.25 526.32 171.73 525.21 171.73C523.83 171.73 523.2 171.1 522.99 169.45H522.75V172.57C522.75 173.92 523.59 175.0 525.15 175.0H528.0600000000001C529.71 175.0 530.61 174.07 530.61 172.57V166.87C530.61 166.12 530.4 165.55 529.95 165.13L526.77 162.1C526.5 161.86 526.38 161.47 526.38 161.08Z" fill="#F2F2F2"/>
  <path d="M536.73 171.67C536.73 172.15 536.46 172.39 536.1 172.39C535.68 172.39 535.47 172.15 535.47 171.67V164.44C535.47 163.99 535.65 163.63 536.1 163.63C536.49 163.63 536.73 163.93 536.73 164.44ZM537.63 175.0C539.13 175.0 540.09 173.89 540.09 172.39V163.63C540.09 162.01 539.0699999999999 161.02 537.63 161.02H534.5699999999999C533.13 161.02 532.11 162.01 532.11 163.63V172.39C532.11 173.89 533.0699999999999 175.0 534.5699999999999 175.0Z" fill="#F2F2F2"/>
  <path d="M544.7399999999999 157.27C544.7399999999999 156.79 544.9799999999999 156.61 545.1899999999999 156.61C545.4599999999999 156.61 545.64 156.79 545.64 157.27V159.61L548.4 157.27V156.43C548.4 155.05 547.65 154.09 546.2099999999999 154.09H543.66C542.4 154.09 541.38 155.14 541.38 156.37V175.0H545.4V174.76C544.9799999999999 174.7 544.7399999999999 174.43 544.7399999999999 173.98V163.78H546.42V161.02H544.7399999999999Z" fill="#F2F2F2"/>
  <path d="M554.4599999999999 161.02H552.75V157.36L548.6999999999999 159.64V159.76C549.18 159.76 549.39 160.09 549.39 160.75V175.0H553.4399999999999V174.76C552.99 174.7 552.75 174.43 552.75 173.98V163.78H554.4599999999999Z" fill="#F2F2F2"/>
  <path d="M570.45 161.26V161.02H566.58V161.26C566.97 161.32 567.1800000000001 161.5 567.1800000000001 161.86C567.1800000000001 161.92 567.15 162.19 567.12 162.28L565.92 168.79L564.45 161.02H561.66L560.16 168.79L559.02 162.28C558.99 162.1 558.96 161.95 558.96 161.83C558.96 161.5 559.14 161.35 559.47 161.26V161.02H554.76V161.26C555.1800000000001 161.35 555.45 161.65 555.57 162.25L558.48 175.0H561.27L562.62 167.92L563.97 175.0H566.76L569.67 162.34C569.85 161.59 570.09 161.35 570.45 161.26Z" fill="#F2F2F2"/>
  <path d="M574.41 170.14C574.41 169.57 574.5600000000001 169.12 574.86 168.88L575.6700000000001 168.22V171.67C575.6700000000001 172.15 575.4 172.39 575.0400000000001 172.39C574.62 172.39 574.41 172.15 574.41 171.67ZM571.0500000000001 173.02C571.0500000000001 174.25 571.74 175.0 572.94 175.0H573.9300000000001C574.8000000000001 175.0 575.34 174.79 575.6700000000001 174.04C575.85 174.79 576.24 175.0 577.08 175.0H579.72V174.76C579.21 174.67 579.03 174.46 579.03 173.86V163.54C579.03 162.07 578.16 161.02 576.69 161.02H573.72C572.5500000000001 161.02 571.5 161.65 571.5 163.0V165.01H571.65C572.1 163.93 572.82 163.78 573.72 163.78H575.16C575.49 163.78 575.6700000000001 163.96 575.6700000000001 164.23V164.53C575.6700000000001 164.77 575.52 164.98 575.22 165.22L571.8000000000001 167.74C571.2900000000001 168.16 571.0500000000001 168.73 571.0500000000001 169.57Z" fill="#F2F2F2"/>
  <path d="M589.0200000000001 164.95V163.03C589.0200000000001 161.59 588.2400000000001 160.9 586.8600000000001 160.9C586.0500000000001 160.9 585.1800000000001 161.26 584.5200000000001 161.89V160.57L580.47 162.76V162.91C580.95 162.91 581.1600000000001 163.24 581.1600000000001 163.9V175.0H585.21V174.76C584.7600000000001 174.7 584.5200000000001 174.46 584.5200000000001 173.89V164.68C584.5200000000001 163.96 584.7900000000001 163.63 585.2700000000001 163.63C585.72 163.63 585.96 163.99 585.96 164.65V167.83Z" fill="#F2F2F2"/>
  <path d="M598.0500000000001 170.23H597.9C597.6600000000001 171.79 596.9100000000001 172.21 595.86 172.21H594.33C593.7 172.21 593.4300000000001 171.79 593.4300000000001 171.31V170.47L597.1800000000001 167.59C597.84 167.11 598.0500000000001 166.48 598.0500000000001 165.82V163.48C598.0500000000001 162.31 597.27 161.02 595.65 161.02H592.47C591.15 161.02 590.07 161.98 590.07 163.66V172.57C590.07 173.71 590.97 175.0 592.44 175.0H595.47C597.09 175.0 598.0500000000001 174.04 598.0500000000001 172.18ZM594.75 165.37C594.75 165.76 594.57 166.12 594.1800000000001 166.42L593.4300000000001 166.99V164.5C593.4300000000001 163.87 593.6700000000001 163.63 594.12 163.63C594.5400000000001 163.63 594.75 163.99 594.75 164.5Z" fill="#F2F2F2"/>
  <path d="M606.66 172.66C606.66 173.71 606.03 174.52 605.25 174.76V175.0H614.64V169.9H614.4C614.13 171.37 613.47 171.73 612.24 171.73H610.29V165.88H611.1899999999999C611.9399999999999 165.88 612.42 166.36 612.54 167.44H612.78V161.35H612.54C612.48 162.28 612.0 162.91 611.22 162.91H610.29V157.36H612.24C613.47 157.36 614.13 157.72 614.4 159.19H614.64V154.09H605.25V154.33C606.03 154.57 606.66 155.38 606.66 156.43Z" fill="#F2F2F2"/>
  <path d="M624.96 175.0V174.76C624.48 174.67 624.27 174.43 624.27 173.95V163.15C624.27 161.71 623.67 160.93 622.2 160.93C621.09 160.93 620.28 161.41 619.59 162.16V160.57L615.54 162.76V162.91C616.02 162.94 616.23 163.24 616.23 163.9V175.0H620.28V174.76C619.83 174.7 619.59 174.43 619.59 173.92V164.68C619.59 163.99 619.8 163.63 620.28 163.63C620.76 163.63 620.91 163.99 620.91 164.65V175.0Z" fill="#F2F2F2"/>
  <path d="M630.48 161.92C630.12 161.29 629.46 160.9 628.4399999999999 160.9C626.73 160.9 625.86 162.01 625.86 164.35V171.34C625.86 173.38 626.43 174.7 628.47 174.7C629.28 174.7 629.9399999999999 174.52 630.48 174.07V176.38C630.48 176.98 630.24 177.13 629.85 177.13C629.49 177.13 629.22 176.92 629.22 176.38V175.54L626.28 176.44V176.95C626.28 178.87 627.42 179.71 628.77 179.71H631.17C633.0 179.71 633.84 178.63 633.84 176.95V162.25C633.84 161.59 634.05 161.29 634.53 161.26V161.02H631.38C630.96 161.02 630.48 161.23 630.48 161.92ZM630.48 171.25C630.48 171.73 630.21 171.97 629.85 171.97C629.43 171.97 629.22 171.73 629.22 171.25V164.44C629.22 163.99 629.4 163.63 629.85 163.63C630.24 163.63 630.48 163.93 630.48 164.44Z" fill="#F2F2F2"/>
  <path d="M639.4200000000001 158.59C639.4200000000001 157.54 638.6700000000001 156.64 637.5300000000001 156.64C636.33 156.64 635.61 157.51 635.61 158.59C635.61 159.73 636.36 160.54 637.5300000000001 160.54C638.64 160.54 639.4200000000001 159.7 639.4200000000001 158.59ZM639.87 175.0V174.76C639.4200000000001 174.7 639.1800000000001 174.43 639.1800000000001 173.98V160.57L635.13 162.76V162.91C635.61 162.91 635.82 163.24 635.82 163.9V175.0Z" fill="#F2F2F2"/>
  <path d="M650.19 175.0V174.76C649.71 174.67 649.5 174.43 649.5 173.95V163.15C649.5 161.71 648.9 160.93 647.4300000000001 160.93C646.32 160.93 645.51 161.41 644.82 162.16V160.57L640.77 162.76V162.91C641.25 162.94 641.46 163.24 641.46 163.9V175.0H645.51V174.76C645.0600000000001 174.7 644.82 174.43 644.82 173.92V164.68C644.82 163.99 645.03 163.63 645.51 163.63C645.99 163.63 646.14 163.99 646.14 164.65V175.0Z" fill="#F2F2F2"/>
  <path d="M659.07 170.23H658.92C658.6800000000001 171.79 657.9300000000001 172.21 656.88 172.21H655.35C654.72 172.21 654.45 171.79 654.45 171.31V170.47L658.2 167.59C658.86 167.11 659.07 166.48 659.07 165.82V163.48C659.07 162.31 658.29 161.02 656.67 161.02H653.49C652.17 161.02 651.09 161.98 651.09 163.66V172.57C651.09 173.71 651.99 175.0 653.46 175.0H656.49C658.11 175.0 659.07 174.04 659.07 172.18ZM655.77 165.37C655.77 165.76 655.59 166.12 655.2 166.42L654.45 166.99V164.5C654.45 163.87 654.69 163.63 655.14 163.63C655.5600000000001 163.63 655.77 163.99 655.77 164.5Z" fill="#F2F2F2"/>
  <path d="M668.25 170.23H668.0999999999999C667.86 171.79 667.11 172.21 666.06 172.21H664.53C663.9 172.21 663.63 171.79 663.63 171.31V170.47L667.38 167.59C668.04 167.11 668.25 166.48 668.25 165.82V163.48C668.25 162.31 667.4699999999999 161.02 665.8499999999999 161.02H662.67C661.3499999999999 161.02 660.27 161.98 660.27 163.66V172.57C660.27 173.71 661.17 175.0 662.64 175.0H665.67C667.29 175.0 668.25 174.04 668.25 172.18ZM664.9499999999999 165.37C664.9499999999999 165.76 664.77 166.12 664.38 166.42L663.63 166.99V164.5C663.63 163.87 663.87 163.63 664.3199999999999 163.63C664.74 163.63 664.9499999999999 163.99 664.9499999999999 164.5Z" fill="#F2F2F2"/>
  <path d="M677.6999999999999 164.95V163.03C677.6999999999999 161.59 676.92 160.9 675.54 160.9C674.7299999999999 160.9 673.8599999999999 161.26 673.1999999999999 161.89V160.57L669.1499999999999 162.76V162.91C669.6299999999999 162.91 669.8399999999999 163.24 669.8399999999999 163.9V175.0H673.8899999999999V174.76C673.4399999999999 174.7 673.1999999999999 174.46 673.1999999999999 173.89V164.68C673.1999999999999 163.96 673.4699999999999 163.63 673.9499999999999 163.63C674.3999999999999 163.63 674.6399999999999 163.99 674.6399999999999 164.65V167.83Z" fill="#F2F2F2"/>
</svg>
